<?xml version="1.0" encoding="UTF-8" standalone="no"?>
<!-- Created with Inkscape (http://www.inkscape.org/) -->

<svg
   xmlns:dc="http://purl.org/dc/elements/1.1/"
   xmlns:cc="http://creativecommons.org/ns#"
   xmlns:rdf="http://www.w3.org/1999/02/22-rdf-syntax-ns#"
   xmlns:svg="http://www.w3.org/2000/svg"
   xmlns="http://www.w3.org/2000/svg"
   xmlns:sodipodi="http://sodipodi.sourceforge.net/DTD/sodipodi-0.dtd"
   xmlns:inkscape="http://www.inkscape.org/namespaces/inkscape"
   width="297mm"
   height="210mm"
   id="svg8525"
   version="1.1"
   inkscape:version="0.48.4 r9939"
   sodipodi:docname="Figur3.svg">
  <defs
     id="defs8527" />
  <sodipodi:namedview
     inkscape:document-units="mm"
     pagecolor="#ffffff"
     bordercolor="#666666"
     borderopacity="1.0"
     inkscape:pageopacity="0.0"
     inkscape:pageshadow="2"
     inkscape:zoom="0.43415836"
     inkscape:cx="490"
     inkscape:cy="380"
     inkscape:current-layer="layer1"
     id="namedview8529"
     showgrid="false"
     inkscape:window-width="1280"
     inkscape:window-height="657"
     inkscape:window-x="-8"
     inkscape:window-y="-8"
     inkscape:window-maximized="1" />
  <metadata
     id="metadata8531">
    <rdf:RDF>
      <cc:Work
         rdf:about="">
        <dc:format>image/svg+xml</dc:format>
        <dc:type
           rdf:resource="http://purl.org/dc/dcmitype/StillImage" />
        <dc:title></dc:title>
      </cc:Work>
    </rdf:RDF>
  </metadata>
  <g
     inkscape:label="Layer 1"
     inkscape:groupmode="layer"
     id="layer1">
    <path
       d="M 9.5325772,34.730118 H 1040.7755 V 395.15085 H 9.5325772 z"
       id="path8285"
       inkscape:connector-curvature="0"
       style="fill:#fdfdfd" />
    <path
       d="m 664.90659,41.661297 2.0181,0.770125 6.55878,3.08051 13.62208,5.775976 12.10854,5.390912 6.55877,2.695451 v 0.770134 l 3.53167,0.770125 11.09947,5.005853 5.04522,2.695451 8.57689,3.080509 9.58591,3.850652 11.09947,4.620786 4.5407,2.310382 14.63114,6.161039 12.10852,5.390914 12.61306,5.390924 14.6311,6.16103 12.61314,5.77595 9.58589,4.23573 0.50451,0.77013 v 9.62661 l 4.54069,2.3104 12.10856,5.39089 14.12658,6.16106 8.57689,3.85063 12.61304,5.39092 12.10857,5.39092 11.09949,4.62077 12.10847,5.3909 12.61307,5.3909 10.59496,4.62079 9.58592,4.23572 14.12664,6.16103 13.11754,5.77598 12.10849,5.39091 9.08144,3.85065 2.0181,0.77012 0.5045,95.11104 -3.0271,-0.77014 -6.5588,-3.08051 -12.61308,-5.39091 -10.595,-4.62078 -11.60391,-5.00585 -12.10855,-5.3909 -11.09946,-4.62079 -12.10856,-5.39091 -14.12659,-6.16104 -13.11757,-5.77597 -21.18995,-9.24155 -14.63115,-6.5461 -11.60398,-5.00585 -12.10856,-5.39091 -13.62207,-5.77597 -10.59498,-4.62078 -12.61307,-5.3909 -8.57686,-3.85066 -13.11758,-5.77597 -12.61304,-5.39091 -11.09949,-5.00583 -11.60401,-5.00585 -13.11758,-5.77597 -12.61303,-5.39092 -12.10853,-5.3909 -12.61304,-5.39091 -21.18992,-9.24156 -9.58592,-4.23571 -0.50453,-0.38507 z"
       id="path8287"
       inkscape:connector-curvature="0"
       style="fill:#dbdddd" />
    <path
       d="m 91.265133,110.97297 h 5.549749 l 5.549738,1.54025 5.54974,3.08053 5.04522,4.62078 4.03618,5.77596 3.53165,8.08637 1.51358,7.31623 v 11.93701 l -1.51358,6.16104 -3.02713,5.77598 -4.03618,4.23571 -4.03616,2.69546 -3.53166,1.54025 0.50451,3.46558 2.0181,5.39092 5.04521,0.77012 2.52261,0.77014 1.51357,3.46559 2.52262,10.01168 1.00904,6.93117 0.50453,11.16686 0.50452,26.95456 0.50452,4.23571 4.03616,6.16103 1.51358,2.69546 -0.50454,2.69545 -5.0452,3.85066 -3.53166,4.23571 -2.01809,1.15519 h -1.00905 l 0.50454,-11.93701 1.00903,-3.85066 1.00906,-1.9253 v -10.39677 l -0.50453,-29.26492 -1.00905,-10.01168 -2.52261,-10.78182 -1.51357,-3.46559 -2.5226,-0.38507 0.50452,3.46558 2.5226,11.55195 1.51357,12.32208 0.50453,6.93117 v 20.40844 l -1.51357,13.47726 -2.01809,6.16106 -1.00904,2.31038 v 18.09805 l 0.50452,23.87402 v 22.71883 l -0.50452,3.08052 2.5226,-1.1552 4.54071,0.38506 5.54973,1.54026 8.57687,1.54027 8.07235,0.38505 -3.02711,2.69546 -4.03618,1.92532 -2.0181,0.38507 h -6.55878 l -7.06331,-1.54026 -9.08139,-3.08052 -1.00904,-1.15518 v -69.3117 l -3.02715,-1.15519 -1.51357,28.4948 -1.51356,17.71298 -2.018091,13.86234 -2.018084,7.7013 -1.009047,2.69547 5.045222,1.9253 6.05428,1.92533 2.5226,1.54026 -0.50451,1.1552 -10.090461,2.69545 -0.504513,0.38507 h 3.531654 l 5.54974,-0.77012 h 8.57689 l 0.50451,0.77012 -6.55878,1.54026 -5.54975,0.77013 -22.198967,1.92533 -13.622106,1.15519 -6.558775,-0.38507 H 52.41695 v -1.1552 l 12.61305,-2.31038 18.162776,-2.31038 5.045226,-0.77015 -0.504524,-1.15518 -2.522607,-0.77015 -2.018095,-1.54024 0.504524,-1.54027 6.558786,-1.92532 2.018104,-0.77012 2.018084,-5.39091 2.018074,-10.0117 2.018084,-16.94284 1.513571,-18.48313 1.009047,-18.4831 0.50452,-21.9487 3.02713,-33.88572 v -18.86817 l -0.50451,-3.08052 -4.540711,-0.38507 -35.82105,-1.15519 -13.622085,-0.77013 -7.567839,-1.15519 -4.036173,-1.15521 -0.50452,-1.54025 4.540693,-8.08637 5.045222,-7.31621 5.045223,-6.54613 6.054264,-7.31623 3.531655,-5.00583 -2.522608,-0.77013 -4.540702,-2.31038 -0.504534,-1.54027 4.036189,-3.85064 h 1.009047 l 1.009037,-1.54028 4.540702,-3.85064 3.531644,-3.08051 2.522618,-1.92534 h 1.51356 l 0.504524,0.77014 -0.504524,5.00585 -2.018094,7.70128 -2.522607,3.46559 -2.522598,3.08053 -6.558796,8.47143 -4.540702,5.39089 -5.54973,7.31624 -5.549741,8.85648 -1.009049,1.92534 v 1.15519 l 7.567839,1.1552 12.108525,0.77013 38.343671,1.1552 2.52259,0.38506 -2.01808,-5.39092 v -3.08051 l -6.054262,-1.1552 -5.549739,-2.69545 -4.036178,-3.08052 -4.540692,-5.39092 -3.531655,-6.16103 -2.522607,-6.93117 -1.009047,-4.23571 v -12.32207 l 2.018084,-7.7013 2.522618,-4.62078 3.02712,-3.46558 2.018084,-1.92533 5.045226,-2.69545 z"
       id="path8289"
       inkscape:connector-curvature="0"
       style="fill:#050406" />
    <path
       d="m 895.9777,165.26712 3.53159,0.38505 11.60408,4.23571 8.07228,3.08053 9.08139,3.85066 3.53169,1.54025 h 2.0181 l 0.50449,1.1552 h 1.51359 l 1.00902,0.38506 -0.50452,0.77012 h 3.02719 l 1.009,0.77014 v 0.77014 l 2.01814,0.77012 1.51356,-0.38506 1.00903,0.77012 v 0.77014 h 1.51354 l 1.0091,0.38506 -0.50454,0.77013 6.05418,1.1552 -0.50446,0.77012 6.55882,2.3104 1.51345,0.38505 2.52254,1.92534 5.54983,2.31039 7.56782,3.46558 2.01808,1.15519 v 0.77012 h 1.51365 v 0.77015 l 2.52264,0.77012 6.05417,3.46559 1.51354,1.54026 0.50455,1.92531 -0.50455,26.18442 -2.52254,0.38506 -8.07226,-3.08052 -14.12674,-5.77598 -9.08136,-3.46557 -9.08136,-3.85065 -9.08143,-4.23571 -5.54977,-2.31039 -7.5678,-3.08052 -2.52259,-1.15519 v -0.77014 l -2.52259,-0.77012 -5.04529,-2.3104 -5.5497,-2.31039 -5.04527,-2.69545 -8.07229,-3.46559 -0.50459,-0.77013 v -26.1844 z"
       id="path8291"
       inkscape:connector-curvature="0"
       style="fill:#faf9c1" />
    <path
       d="m 784.4783,115.59375 2.01809,0.38506 3.02712,0.77013 v 0.77012 l 3.02714,0.77015 8.57688,3.46557 10.59494,4.62078 3.02713,1.15519 0.50459,0.77014 2.5226,0.38506 7.06327,3.08053 4.5407,2.31038 3.02718,1.15519 6.0542,2.69546 h 1.51359 l 1.51359,1.15519 2.0181,0.38506 v 1.15521 l 2.52259,0.38505 10.09039,4.23572 7.56788,3.46558 0.5045,0.77013 3.53168,0.77014 0.50451,1.15519 2.01809,-0.38507 v 1.1552 l 2.0181,0.38507 4.54069,1.92533 3.02711,1.15518 v 30.8052 l -1.00903,0.77012 -8.07237,-3.08051 -13.62207,-5.77598 -2.5226,-0.77012 v -0.77013 l -3.02718,-0.77015 -14.12657,-6.16104 -8.57689,-3.85063 -3.0271,-1.1552 -6.05428,-2.69545 -5.54978,-2.3104 -4.03618,-1.92531 -5.54975,-2.3104 -10.09043,-4.62078 -9.08139,-3.85064 -1.00904,-0.77013 z"
       id="path8293"
       inkscape:connector-curvature="0"
       style="fill:#fbfac0" />
    <path
       d="m 673.98798,109.81778 2.52261,0.38506 6.05427,1.92533 v 0.77013 l 4.54069,1.1552 8.07236,3.08051 10.59495,4.23572 11.60401,5.00583 12.61305,5.39092 10.09044,4.62078 13.11757,5.77596 6.05426,3.08052 7.0633,4.23571 1.51357,1.1552 0.50454,1.92533 v 19.63831 l -0.50454,7.31623 -4.54069,-1.1552 -9.58591,-3.85065 -10.09044,-3.46559 -4.5407,-2.31038 -8.07235,-3.08053 -8.07235,-3.46557 -8.57688,-3.46558 -6.55877,-3.08053 -7.06331,-3.08051 -5.54975,-2.69547 -5.54974,-2.31039 -2.52262,-1.15518 v -0.77014 l -2.01807,-0.38506 -4.03619,-1.92533 -6.55879,-3.46557 -1.00903,-1.54027 v -13.09221 z"
       id="path8295"
       inkscape:connector-curvature="0"
       style="fill:#fcfbc1" />
    <path
       d="m 895.47311,206.084 4.03618,0.77012 2.01811,0.77014 v 0.77012 l 2.52259,0.38507 v 0.77012 l 4.54069,1.1552 10.59497,4.23572 5.54978,2.31038 6.55879,2.69546 9.08138,3.85066 9.58592,4.23571 4.54063,1.92532 v 0.77012 l 2.01809,0.38507 3.02728,1.1552 v 0.77012 l 2.01809,0.38507 1.51335,0.38507 v 0.77012 l 3.02728,0.77013 7.56782,3.46559 5.54983,2.31039 4.54063,2.31038 5.54972,3.08052 1.009,1.15519 -0.50455,29.65 -3.02709,-0.77013 -11.09955,-4.62078 -13.62199,-5.77596 -12.10854,-5.39092 -17.15371,-7.7013 -4.54077,-1.54025 v -0.77014 l -3.0271,-0.77011 -10.59498,-4.62079 -11.09947,-5.00584 -7.56779,-3.46559 -1.00909,-1.1552 v -26.56947 z"
       id="path8297"
       inkscape:connector-curvature="0"
       style="fill:#fcfbc1" />
    <path
       d="m 673.98798,67.845709 2.52261,0.385058 11.60401,4.620777 3.53165,1.540259 3.02714,0.770124 v 0.770144 l 4.5407,1.155182 7.0633,3.080528 7.06331,2.695448 5.04521,2.310385 12.10853,5.005854 4.03618,1.540258 1.51356,0.38506 2.52262,1.92533 5.54973,2.310384 7.56784,3.46559 3.02712,1.54025 v 0.77014 h 1.51357 v 0.77012 h 1.51357 l 1.51356,1.15521 6.55879,3.46558 2.01808,2.31039 0.50454,1.15519 v 16.94286 l -0.50454,10.01168 -3.02712,-0.77013 -9.58591,-3.4656 -2.52262,-1.15518 -5.54974,-1.54026 v -0.77012 l -3.53165,-0.77015 -2.01809,-1.15518 -5.54975,-2.3104 -6.55877,-2.69545 -4.5407,-1.92531 -1.00904,-0.77014 -3.53167,-1.1552 -5.54974,-2.31038 -7.56783,-3.46558 -11.604,-5.39092 -2.52261,-1.54025 -2.52261,-0.77014 v -0.77011 l -4.5407,-1.1552 -3.53165,-2.3104 -7.06331,-3.08052 -1.51357,-0.77012 -0.50451,-25.799351 z"
       id="path8299"
       inkscape:connector-curvature="0"
       style="fill:#fcfbc1" />
    <path
       d="m 784.98281,158.33595 3.53165,0.38507 2.01808,0.77012 v 0.77013 l 3.02714,0.77013 13.6221,5.00585 2.01809,0.77012 v 0.77013 l 2.5226,0.38508 7.06331,3.0805 8.07239,3.08053 13.62207,6.16104 4.54068,2.31039 5.54979,2.31038 5.04519,2.31039 1.00908,0.38508 v 0.77012 l 2.5226,0.38507 2.5226,1.54025 2.5226,0.77013 3.02717,1.54026 5.04521,2.3104 2.01809,1.54025 5.04519,2.69546 0.50452,2.69545 -0.50452,25.79934 0.50452,0.77013 -2.01811,-0.38505 -11.60398,-4.23571 -10.09047,-3.85066 -2.52259,-0.77013 v -0.77013 l -2.0181,-0.38506 -11.60398,-5.00585 -4.03618,-1.54027 -8.0723,-3.46558 -9.58595,-4.23571 -2.52262,-1.15519 -4.54072,-2.31038 -6.05427,-2.69546 -6.55878,-3.08053 -11.09949,-5.39091 -2.01808,-1.54024 -0.50453,-1.1552 -0.50451,-4.23571 V 161.0314 z"
       id="path8301"
       inkscape:connector-curvature="0"
       style="fill:#fcfbc1" />
    <path
       d="m 91.265133,114.0535 h 6.054262 l 4.540705,1.54025 5.04524,3.46558 3.02711,3.08052 2.52261,3.85064 -6.55878,0.38507 -2.52262,1.54027 -1.00904,1.92532 0.50451,4.23571 2.0181,3.08052 3.53166,1.54026 h 3.02713 l 3.02713,-1.54026 1.51356,-1.54026 h 1.00905 l 1.00905,3.85064 0.50453,3.46559 v 7.7013 l -1.51358,7.31624 -2.52261,5.3909 -3.02713,3.46558 -3.53166,2.69546 -4.5407,1.54025 h -4.540694 l -6.054262,-2.31038 -5.045226,-3.85065 -4.036178,-5.00585 -2.522608,-4.23571 -2.522607,-6.16104 -1.513561,-7.31623 v -8.85649 l 1.513561,-6.5461 2.522607,-5.00585 3.027142,-3.85064 4.036168,-2.69546 z"
       id="path8303"
       inkscape:connector-curvature="0"
       style="fill:#fcfcfc" />
    <path
       d="m 128.09525,152.17491 6.55878,0.77012 104.94055,17.713 141.26616,23.87401 38.34367,6.54611 21.18993,3.46559 205.34042,34.65582 237.62986,40.04676 19.67636,3.46558 21.18996,3.46559 49.94758,8.47142 11.09955,2.31039 1.51353,1.1552 -6.55881,-0.77013 -17.15383,-3.08052 -66.09226,-11.16688 -164.47417,-27.72468 -93.33655,-15.78766 -77.69639,-13.0922 -148.32944,-25.02922 -166.49225,-28.10974 -77.69638,-13.0922 -26.73967,-4.62078 -13.11757,-2.31039 -1.00903,-0.38507 z"
       id="path8305"
       inkscape:connector-curvature="0"
       style="fill:#050406" />
    <path
       d="m 656.83424,45.897007 1.00905,0.770125 -2.5226,1.155201 -162.9606,25.799336 -58.52455,9.24156 -77.69638,12.322067 -34.812,5.390924 -43.3889,6.93117 -58.52454,9.24155 -92.32752,14.63246 -2.0181,-0.38506 1.00905,-0.77012 20.18088,-3.46559 185.15956,-29.26493 187.68216,-29.649991 89.8049,-14.247416 46.41604,-7.316219 z"
       id="path8307"
       inkscape:connector-curvature="0"
       style="fill:#050406" />
    <path
       d="m 134.65403,339.7015 h 3.02713 l -1.51357,0.77013 -9.08139,1.54028 -11.604,2.31036 -6.5588,1.54028 h -1.51355 v 0.77012 l -2.52262,0.77013 h 6.05427 l 13.62209,-0.77013 10.59496,-0.38505 h 10.59496 l 12.10852,0.77012 v 0.77013 l -13.62207,1.92532 -12.10855,3.08052 -0.50451,0.77014 6.05426,0.77012 25.22611,1.92532 v 0.77014 l -5.54975,0.77013 h -29.26227 l -10.09044,-0.77013 -2.0181,-0.77014 1.00905,-1.92532 4.54071,-1.92532 -16.14472,0.77012 -7.063318,0.38508 0.504534,-1.1552 2.018084,-0.38507 -2.522618,-0.38507 H 86.219918 l -1.009047,-1.15518 2.018094,-1.1552 16.649225,-4.23571 12.10852,-2.3104 7.56783,-1.54026 5.04522,-0.77013 z"
       id="path8309"
       inkscape:connector-curvature="0"
       style="fill:#dbdddd" />
    <path
       d="m 88.742525,129.45607 h 4.540702 l 3.027121,1.54027 2.018084,2.69544 0.504534,1.54027 v 3.46559 l -1.513571,1.92533 -3.027121,1.92532 -3.027141,0.38506 -3.531655,-1.15518 -2.522607,-2.31041 -1.009037,-2.31038 v -4.23571 l 2.018084,-2.3104 z"
       id="path8311"
       inkscape:connector-curvature="0"
       style="fill:#050406" />
    <path
       d="m 109.42794,208.77945 h 0.50451 l 0.50453,3.08052 0.50452,7.70129 v 15.01753 l -1.00905,15.01753 -1.00905,5.77597 -1.00904,1.54027 -1.51357,-0.38507 -0.50451,-2.69546 v -8.85648 l 1.00906,-13.86234 1.51355,-15.78766 z"
       id="path8313"
       inkscape:connector-curvature="0"
       style="fill:#f7f7f7" />
    <path
       d="m 134.65403,339.7015 h 3.02713 l -1.51357,0.77013 -9.08139,1.54028 -11.604,2.31036 -13.11758,3.08053 -3.531654,1.1552 h 4.540694 l -1.00904,0.77013 -7.063309,0.77013 -0.504523,0.38507 -6.558786,0.77012 h -2.522608 v -1.15519 l 4.036178,-1.54026 14.126618,-3.46558 12.10852,-2.3104 7.56783,-1.54026 5.04522,-0.77013 z"
       id="path8315"
       inkscape:connector-curvature="0"
       style="fill:#050406" />
    <path
       d="m 107.91436,338.54631 1.51358,0.38507 -1.00905,0.38505 0.50451,0.38507 17.65827,0.38506 h 5.04523 v 0.38507 l -7.06331,0.77013 -4.54069,1.1552 -16.14471,3.08051 -3.02714,0.77015 -2.018084,-0.38507 3.531654,-1.15521 -7.063309,0.38508 -8.072346,0.77013 h -4.540702 v -0.38508 l 25.226097,-2.31038 8.07235,-1.54026 0.50454,-0.38507 h -8.57689 l -5.54974,0.77015 h -4.036188 l 1.009047,-1.1552 z"
       id="path8317"
       inkscape:connector-curvature="0"
       style="fill:#dcdede" />
    <path
       d="m 672.97894,49.747641 2.52261,0.770143 13.11757,5.775969 13.11757,5.390902 5.04522,2.310402 -1.51356,0.385058 -2.0181,-0.385058 -1.51356,-0.770134 v 1.155192 h 1.51356 v 0.770134 l 2.0181,0.385058 -1.00906,0.385076 -1.51355,-0.385076 -0.50453,1.540259 -2.01808,-0.385058 0.50453,-3.465585 h -1.00906 l -1.51355,-1.155192 v 1.155192 H 697.196 l -1.51357,-1.925326 -6.05426,-2.310393 -4.03617,-1.925317 -6.5588,-3.080519 -3.02713,-1.1552 -3.02713,-0.385058 -0.50452,-2.310392 z"
       id="path8319"
       inkscape:connector-curvature="0"
       style="fill:#070608" />
    <path
       d="m 689.12363,97.11063 7.06333,3.08053 3.02713,1.15518 v 0.77014 l 2.5226,0.77012 7.06331,3.08052 7.06331,2.69546 v 0.77014 l 2.5226,0.38506 -1.00904,1.15519 -3.53165,-0.38507 -7.06331,-2.69546 -5.04522,-2.31037 -2.01809,-1.54026 h 1.00906 l -1.51357,-1.15521 -1.00904,-0.38506 v -0.77013 h -2.52262 l 3.02713,1.54026 0.50453,0.77014 -2.52261,-0.77014 -3.02713,-1.54026 -1.51357,-1.92532 -1.51357,-0.77013 0.50452,1.92532 -0.50452,1.1552 h -1.51358 z"
       id="path8321"
       inkscape:connector-curvature="0"
       style="fill:#b8b9ba" />
    <path
       d="m 89.751572,131.76648 h 2.522618 l 2.522598,1.9253 1.009047,3.4656 -1.009047,1.92532 -1.513561,1.1552 -3.531655,-0.38506 -2.018094,-2.31038 -0.504513,-3.4656 1.51356,-1.92532 z"
       id="path8323"
       inkscape:connector-curvature="0"
       style="fill:#f9fafa" />
    <path
       d="m 106.90534,128.30089 h 3.02711 l 2.52261,1.54026 1.00904,1.54025 v 3.08053 l -2.01808,1.92533 h -3.02713 l -2.0181,-1.15521 -1.00904,-1.92532 v -3.46558 z"
       id="path8325"
       inkscape:connector-curvature="0"
       style="fill:#fafafa" />
    <path
       d="m 706.78191,64.380115 3.02714,0.770134 8.57686,3.850643 9.58593,4.235719 3.02713,1.155192 -0.50453,1.925326 h 1.00904 v 3.465576 l -3.53164,-0.770126 v -0.770124 h 1.00903 l -1.00903,-3.850652 -5.04522,-1.155192 -1.00906,-1.540268 -2.52259,-0.385058 -3.02715,-1.155192 -0.50451,0.770125 -1.51357,-0.385058 -1.00904,-2.695451 -0.50452,0.770125 h -1.00905 v -0.770125 h -1.00903 l -0.50454,-0.385076 -1.00903,0.770134 -3.02714,-1.540259 v -0.770125 l 1.00904,-0.770134 z"
       id="path8327"
       inkscape:connector-curvature="0"
       style="fill:#09090b" />
    <path
       d="m 867.21995,196.45737 4.5407,1.92533 3.0271,1.54026 1.00901,1.92532 -2.5226,1.92532 3.02718,1.54026 -0.50458,0.77014 -8.57681,-3.46559 0.50451,-1.92533 1.00901,-1.1552 h 1.00909 l -2.52261,-1.92531 z"
       id="path8329"
       inkscape:connector-curvature="0"
       style="fill:#b0b08f" />
    <path
       d="m 937.3485,229.95802 3.0271,1.54025 1.00901,0.77014 4.03624,0.38506 2.52257,1.92532 3.02709,1.54027 4.03618,1.92532 2.01819,1.92533 -2.01819,-0.38508 -4.03618,-1.92532 v -0.77013 l -4.54064,-0.77012 -5.04526,-1.92533 -4.03611,-1.92532 -3.02718,-1.54027 v -0.38506 z"
       id="path8331"
       inkscape:connector-curvature="0"
       style="fill:#aaaba4" />
    <path
       d="m 704.25929,136.77231 5.54976,2.31039 5.54974,2.69547 4.54069,1.9253 7.56784,3.08053 v 0.38507 h -3.02714 l -2.01808,-1.15519 v 1.15519 h 1.00903 l -0.50451,0.77013 -1.51357,-1.1552 H 720.404 l -0.50452,-1.92532 -3.53166,-0.77013 -1.51356,-0.38508 -1.51356,0.38508 -1.00904,-2.31038 -4.03618,-1.92533 -3.02713,-1.1552 1.51356,2.31038 -2.01809,0.77015 -0.50453,-1.92533 z"
       id="path8333"
       inkscape:connector-curvature="0"
       style="fill:#dadcdc" />
    <path
       d="m 733.52156,158.33595 7.06332,3.08051 6.55879,3.08052 3.02713,1.15519 -0.50452,4.23571 h -1.51357 v -2.69544 l -0.50453,-1.15519 -3.02712,-0.38508 -4.03618,-1.54024 -1.51356,-1.92533 -3.02714,-0.38508 h -1.00904 v -1.15518 l -1.51358,0.38506 -0.50451,-2.31038 z"
       id="path8335"
       inkscape:connector-curvature="0"
       style="fill:#b1b2b3" />
    <path
       d="m 819.79487,187.60089 2.52261,0.77012 4.54069,0.77012 1.00908,1.54027 -3.02719,-0.38507 v 1.15521 l 4.03619,0.38506 2.52261,1.54024 v -0.77012 l 2.52259,0.38507 v 1.54025 1.92533 l -1.51351,-0.38506 -2.0181,-1.54027 -8.07236,-3.0805 -6.05429,-2.69546 1.5136,-0.38507 5.04518,1.54025 -3.0271,-1.54025 z"
       id="path8337"
       inkscape:connector-curvature="0"
       style="fill:#c7c9c9" />
    <path
       d="m 951.47506,243.82034 h 1.00909 v 0.77014 h 1.009 l 1.009,1.92532 4.03618,1.15519 1.00919,-0.77012 -0.50455,1.92532 2.52264,0.38507 3.53154,1.54025 -1.009,0.77014 1.009,0.38505 v 0.77015 l 2.52264,0.77012 -1.51355,0.38506 -5.04528,-2.31038 -5.54972,-2.31039 -3.02709,-1.54027 1.009,-0.38505 v -0.77014 h -1.51355 z"
       id="path8339"
       inkscape:connector-curvature="0"
       style="fill:#c4c6c5" />
    <path
       d="m 941.88919,189.91126 h 1.51348 v 0.77014 l 2.5227,0.77014 2.5226,1.54025 1.51355,0.38505 1.51354,1.1552 11.09955,4.62079 2.01809,1.54025 -3.02709,-0.77012 -10.5951,-4.23571 -4.54064,-1.54026 -5.04526,-2.31039 -2.5226,-1.54027 3.02718,0.38507 z"
       id="path8341"
       inkscape:connector-curvature="0"
       style="fill:#73736f" />
    <path
       d="m 104.88723,158.72102 h 7.06331 l -1.00904,1.54025 -13.117581,1.15519 -5.045215,0.38506 -0.504514,-1.15518 4.540692,-1.1552 z"
       id="path8343"
       inkscape:connector-curvature="0"
       style="fill:#050406" />
    <path
       d="m 701.73669,104.04181 8.57687,2.31038 4.03618,1.92532 1.51357,0.38507 v 0.77014 l 2.5226,0.38506 -1.00904,1.15519 -3.53165,-0.38507 -7.06331,-2.69546 -2.52262,-1.15518 -2.5226,-1.92533 z"
       id="path8345"
       inkscape:connector-curvature="0"
       style="fill:#d1d1b3" />
    <path
       d="m 847.03902,198.76776 h 1.00909 l 0.5045,1.92532 -0.5045,0.38507 2.01809,0.77013 0.50451,-0.77013 h 2.01809 v 1.54026 l 2.01809,0.77012 4.54069,1.92533 v -0.38506 l 0.50451,-0.77013 h 1.51358 v 3.46559 l -1.51358,-0.38508 v -0.77012 l -3.53169,-0.77012 -5.04519,-2.31041 -3.53161,-1.54025 -1.51359,-0.77013 z"
       id="path8347"
       inkscape:connector-curvature="0"
       style="fill:#c3c4c4" />
    <path
       d="m 820.80389,179.51452 8.07236,3.08052 3.53169,1.54026 3.53161,1.15519 1.51359,1.1552 -2.0181,0.38506 2.0181,1.54026 -3.0271,-0.77012 -4.0362,-1.92534 -2.01808,-1.54025 v -1.1552 l -3.02718,-0.38506 -5.04521,-1.92534 z"
       id="path8349"
       inkscape:connector-curvature="0"
       style="fill:#929393" />
    <path
       d="m 928.77163,234.96385 h 0.50449 v 2.3104 h 1.5136 l 2.01809,1.54026 v -3.08053 h 2.01802 l -0.50451,1.54027 v 1.54026 l 1.00909,0.38505 v -1.54025 h 1.009 l 2.01811,2.3104 -0.50452,1.15519 -2.01809,-0.38506 -3.53168,-1.15521 -5.5497,-2.31038 0.50451,-1.92533 z"
       id="path8351"
       inkscape:connector-curvature="0"
       style="fill:#98999a" />
    <path
       d="m 755.72054,106.35219 2.52261,0.38507 4.03618,1.92532 2.01808,1.54026 v 0.77013 l -2.01808,-0.77013 -4.03618,-1.92533 -3.02712,-0.38507 2.01808,3.46558 5.54973,2.69548 1.51357,0.38505 v 0.77013 l -2.52261,-0.38507 -5.0452,-2.31039 -1.51357,-1.54025 -0.50454,-1.15519 v -3.08052 z"
       id="path8353"
       inkscape:connector-curvature="0"
       style="fill:#dddfdd" />
    <path
       d="m 834.93054,151.01971 3.0271,0.38507 8.07237,3.08053 2.5226,0.77012 0.50451,-0.77012 3.02718,1.15518 v 0.77014 l 2.52259,0.38506 7.06329,2.31039 v 0.77012 l -2.01809,-0.38506 -6.05428,-1.92533 -4.54069,-1.54025 -1.00901,0.38507 -11.09948,-4.23572 -2.52259,0.77012 z"
       id="path8355"
       inkscape:connector-curvature="0"
       style="fill:#d7d9d9" />
    <path
       d="m 719.39497,69.000892 9.5859,3.465585 3.53166,0.770134 1.00903,1.155192 v 6.546102 l -1.51355,-1.1552 -0.50453,-5.005835 -8.07235,-3.080527 -4.03616,-1.925326 z"
       id="path8357"
       inkscape:connector-curvature="0"
       style="fill:#fcfcfc" />
    <path
       d="m 824.33556,197.99763 3.02711,0.77013 v 0.77012 h 1.00909 l 3.0271,2.69546 1.00908,0.38507 1.00901,1.15519 3.02709,0.38507 0.50459,-0.77014 1.00901,1.92533 h -4.54069 l -1.00901,-0.38506 v -0.77013 h -1.00908 v -0.77014 l -2.0181,-0.77012 -1.009,-1.92533 h -1.51359 l -0.50451,0.77013 -2.0181,-0.38506 1.00902,-0.77012 v -1.1552 l -1.00902,-0.38507 z"
       id="path8359"
       inkscape:connector-curvature="0"
       style="fill:#bcbebe" />
    <path
       d="m 959.54752,239.58463 2.52254,1.15521 2.52264,0.77012 1.009,2.31038 h 1.00909 v 1.15521 h -2.52264 l -3.02719,-1.15521 -0.50454,1.15521 -0.50445,-1.54027 0.50445,-0.77012 h 3.02718 l -6.05418,-1.92532 -0.50454,-0.77013 2.52264,0.38506 z"
       id="path8361"
       inkscape:connector-curvature="0"
       style="fill:#a8aaaa" />
    <path
       d="m 709.30453,131.3814 h 1.51357 v 0.77014 l 2.5226,0.77013 h 2.52261 l 2.5226,1.54026 1.00906,0.77012 h 2.01808 l 1.51357,2.69546 -2.01809,-0.38505 -5.04522,-2.31041 -6.55878,-3.08051 z"
       id="path8363"
       inkscape:connector-curvature="0"
       style="fill:#8c8d8d" />
    <path
       d="m 836.94863,149.86451 5.04519,1.54027 6.05429,2.69546 0.5045,1.15519 -2.5226,-0.38507 -8.07237,-3.08051 -2.01809,-1.54026 z"
       id="path8365"
       inkscape:connector-curvature="0"
       style="fill:#fefdc2" />
    <path
       d="m 977.20579,248.05607 2.52255,0.77012 4.54072,5.00584 3.02709,0.38508 v -3.08053 l 1.009,0.77012 0.50455,2.31041 -1.009,1.15518 h -3.53164 l -5.04517,-5.00583 -2.0181,-1.54027 z"
       id="path8367"
       inkscape:connector-curvature="0"
       style="fill:#dcdede" />
    <path
       d="m 732.51253,98.65089 1.00903,0.38507 v 1.54026 h 3.02715 l 2.52261,1.54026 2.52261,0.77012 0.50453,1.54027 -2.52262,0.77014 -2.01809,0.77011 0.50453,-2.31039 h 1.51356 v -0.77013 l -4.5407,-1.15519 -3.53166,-1.15519 -1.51356,-1.15518 h 2.01809 z"
       id="path8369"
       inkscape:connector-curvature="0"
       style="fill:#898a89" />
    <path
       d="m 944.91633,233.4236 2.0181,0.77013 8.07226,3.85065 2.01819,1.92533 -2.01819,-0.38508 -4.03618,-1.92532 v -0.77013 l -4.54064,-0.77012 -2.01806,-0.77014 1.00904,-1.15519 z"
       id="path8371"
       inkscape:connector-curvature="0"
       style="fill:#b6b7b6" />
    <path
       d="m 952.48415,203.00347 3.53164,2.31039 2.52254,0.77014 1.00919,-0.38506 1.0089,2.31037 0.50454,0.77014 -2.52263,-0.38507 -7.06327,-3.85064 z"
       id="path8373"
       inkscape:connector-curvature="0"
       style="fill:#989a9a" />
    <path
       d="m 807.6863,136.77231 2.52261,0.77015 8.57687,3.08051 5.04529,2.69544 2.52259,1.54027 -2.52259,-0.38507 -7.56788,-3.46559 -7.56785,-3.08051 z"
       id="path8375"
       inkscape:connector-curvature="0"
       style="fill:#050406" />
    <path
       d="m 741.59393,120.21453 5.04521,2.31039 2.01809,0.77012 -0.50452,0.77014 h 1.00904 v -0.77014 l 2.01809,0.38508 v 0.77012 l -2.01809,0.38506 v 0.77014 l -2.52261,-0.77014 -2.01808,-1.92532 -2.5226,-0.77013 z"
       id="path8377"
       inkscape:connector-curvature="0"
       style="fill:#d1d2cd" />
    <path
       d="m 701.73669,61.299597 2.5226,0.770134 6.55881,2.695451 7.56781,3.465585 -2.01809,0.385067 -6.55877,-3.080527 -8.07236,-3.465576 z"
       id="path8379"
       inkscape:connector-curvature="0"
       style="fill:#eeefef" />
    <path
       d="m 746.63914,80.167781 3.53166,1.54025 0.50452,0.770132 -1.51357,3.080518 -2.52261,-1.155186 z"
       id="path8381"
       inkscape:connector-curvature="0"
       style="fill:#050406" />
    <path
       d="m 726.96279,113.66843 3.53165,0.38507 1.00904,2.69544 0.50453,1.54027 -2.01809,-0.77015 -3.53164,-1.92531 -2.52261,-0.77014 1.51355,-0.38506 h 1.51357 z"
       id="path8383"
       inkscape:connector-curvature="0"
       style="fill:#b8b9a8" />
    <path
       d="m 706.27739,146.784 3.02714,0.77012 1.51357,0.77014 v 0.77013 h -1.00905 l 0.50451,0.77012 1.51357,-0.38506 v 1.92533 l -2.5226,-0.38507 -3.02714,-1.54026 z"
       id="path8385"
       inkscape:connector-curvature="0"
       style="fill:#c9cbcb" />
    <path
       d="m 756.7296,151.01971 2.01807,0.38507 v 1.92532 l 2.52261,1.92533 3.53166,0.77013 1.51355,-0.77013 -0.50451,1.92531 -3.02714,0.38507 -5.04521,-3.46557 -1.00903,-1.92533 z"
       id="path8387"
       inkscape:connector-curvature="0"
       style="fill:#bcbdbe" />
    <path
       d="m 948.95251,193.76192 2.52255,0.77012 11.09955,4.62079 2.01809,1.54025 -3.02709,-0.77012 -10.5951,-4.23571 z"
       id="path8389"
       inkscape:connector-curvature="0"
       style="fill:#050406" />
    <path
       d="m 88.742525,342.01191 h 3.027131 l -0.504523,1.15518 -10.594954,0.77013 h -4.540702 l 1.513571,-0.77013 z"
       id="path8391"
       inkscape:connector-curvature="0"
       style="fill:#dcdede" />
    <path
       d="m 874.78775,200.30803 2.5226,1.92531 v 3.85066 h -1.00901 l -1.51359,-1.1552 -2.52259,-1.54027 2.52259,-1.15519 v -1.15519 z"
       id="path8393"
       inkscape:connector-curvature="0"
       style="fill:#f1f2e8" />
    <path
       d="m 927.25804,183.75023 h 0.50449 v 1.92532 h 4.0362 l 6.05427,3.08053 v 0.38505 l -3.53168,-0.38505 -8.0723,-3.08053 z"
       id="path8395"
       inkscape:connector-curvature="0"
       style="fill:#757676" />
    <path
       d="m 830.38984,157.18074 3.53161,0.77015 4.03619,1.15519 2.01809,0.38506 2.01809,-0.38506 1.00902,1.54026 -2.5226,0.77012 -9.58589,-3.46557 z"
       id="path8397"
       inkscape:connector-curvature="0"
       style="fill:#c9cac9" />
    <path
       d="m 721.41305,153.3301 5.04523,1.92533 h 3.02713 l -0.50454,3.46559 -3.02712,-0.38507 0.50453,-0.77014 1.00904,0.38508 -2.0181,-1.54026 -2.01809,-0.77014 -2.01808,-1.92533 z"
       id="path8399"
       inkscape:connector-curvature="0"
       style="fill:#c4c5c6" />
    <path
       d="m 981.24188,204.15867 2.52264,0.77013 v 0.38506 l -3.53173,0.77014 -0.50445,0.77012 v 2.31039 l 5.04518,0.38506 -2.01819,0.77014 -2.01809,-0.38506 v 0.77012 h -2.01791 l -0.50464,-1.54026 0.50464,-3.46557 z"
       id="path8401"
       inkscape:connector-curvature="0"
       style="fill:#dcdede" />
    <path
       d="m 928.26704,223.41191 h 1.00908 l -0.50449,1.54026 -1.0091,2.31038 3.53169,0.38507 3.53161,1.54027 -0.50451,1.15519 -2.52259,-0.77014 -3.53169,-1.54024 -1.51351,-1.1552 z"
       id="path8403"
       inkscape:connector-curvature="0"
       style="fill:#868788" />
    <path
       d="m 847.03902,198.76776 h 1.00909 l 0.5045,1.92532 -0.5045,0.38507 2.01809,0.77013 0.50451,-0.77013 h 2.01809 l 0.5045,1.92532 -0.5045,0.77013 -3.02718,-0.77013 -3.53161,-1.92532 z"
       id="path8405"
       inkscape:connector-curvature="0"
       style="fill:#818283" />
    <path
       d="m 824.33556,152.17491 2.52261,0.77012 5.04519,3.08053 -1.00901,0.38507 -4.03618,-1.1552 v 1.1552 l -1.00902,-0.38507 v -1.54025 h -1.00909 z"
       id="path8407"
       inkscape:connector-curvature="0"
       style="fill:#797a7b" />
    <path
       d="m 715.35879,100.19116 3.53164,1.54025 1.00905,0.38507 v 0.77012 h 1.00905 l 0.50452,1.15521 -2.52262,-0.38508 -4.54069,-1.54025 -2.01808,-1.1552 h 2.5226 z"
       id="path8409"
       inkscape:connector-curvature="0"
       style="fill:#abacad" />
    <path
       d="m 722.92662,94.800246 h 1.00905 V 96.3405 l 2.01808,-0.385064 3.02712,1.155194 v 1.15521 l 1.00905,0.38505 -4.5407,-0.77012 -3.53166,-1.54027 z"
       id="path8411"
       inkscape:connector-curvature="0"
       style="fill:#b8b9b8" />
    <path
       d="m 926.24902,201.07815 2.01802,0.38506 2.52268,1.1552 2.01809,0.38506 0.5045,1.1552 -1.51358,0.38507 -0.50451,-0.77014 -3.53169,0.38507 -1.51351,-1.1552 z"
       id="path8413"
       inkscape:connector-curvature="0"
       style="fill:#797a79" />
    <path
       d="m 754.71149,109.04764 h 1.00905 l 1.51357,2.31038 5.54973,2.69548 1.51357,0.38505 v 0.77013 l -2.52261,-0.38507 -5.0452,-2.31039 -1.51357,-1.54025 z"
       id="path8415"
       inkscape:connector-curvature="0"
       style="fill:#c7c9c9" />
    <path
       d="m 942.39374,247.67099 h 1.00893 l -1.00893,3.46559 1.51356,-0.77012 h 1.51355 l -0.50452,1.54024 -2.01807,0.77015 -2.01816,-0.38507 -0.5045,-1.1552 h 1.00901 v -1.92532 z"
       id="path8417"
       inkscape:connector-curvature="0"
       style="fill:#cfd0d1" />
    <path
       d="m 728.47636,140.2379 4.54069,0.77012 1.51357,1.1552 7.06331,2.69546 -1.00905,0.38506 -9.0814,-3.08052 -3.02712,-1.54025 z"
       id="path8419"
       inkscape:connector-curvature="0"
       style="fill:#050406" />
    <path
       d="m 718.38591,65.150249 6.05427,2.69546 2.0181,1.54025 -3.02715,-0.385067 -2.01808,-1.155183 -3.53165,-1.155201 -1.00905,-0.770125 z"
       id="path8421"
       inkscape:connector-curvature="0"
       style="fill:#b1b2b2" />
    <path
       d="m 733.52156,158.33595 5.04524,2.31039 v 0.77012 l -3.53166,0.38506 v -1.15518 l -1.51358,0.38506 -0.50451,-2.31038 z"
       id="path8423"
       inkscape:connector-curvature="0"
       style="fill:#a3a4a4" />
    <path
       d="m 716.87235,110.97297 h 2.52262 l 1.00903,0.77013 4.54071,1.1552 2.52261,1.92531 -3.53165,-0.38506 -4.5407,-2.31038 -2.52262,-0.77015 z"
       id="path8425"
       inkscape:connector-curvature="0"
       style="fill:#fefdc2" />
    <path
       d="m 720.90853,144.47361 3.02714,0.77013 3.53165,1.54026 v 0.38507 h -3.02714 l -2.01808,-1.15519 v 1.15519 h 1.00903 l -0.50451,0.77013 -1.51357,-1.1552 H 720.404 v -1.92532 z"
       id="path8427"
       inkscape:connector-curvature="0"
       style="fill:#dcdede" />
    <path
       d="m 741.59393,78.242455 2.01809,0.385067 1.51356,2.310383 -0.50452,1.925324 -2.01808,0.385056 -0.50452,-1.925312 v -2.310394 z"
       id="path8429"
       inkscape:connector-curvature="0"
       style="fill:#09080a" />
    <path
       d="m 668.43825,46.667132 2.52261,1.155201 1.00903,1.540249 -1.51355,1.155202 -2.01809,-0.385066 z"
       id="path8431"
       inkscape:connector-curvature="0"
       style="fill:#050406" />
    <path
       d="m 964.5927,208.77945 2.52254,1.92532 h 3.02719 l 1.009,2.31039 0.50454,0.77014 -2.01809,-0.38508 -0.50455,-1.15519 h -1.51354 v -0.77014 l -2.01809,-0.38505 -1.51355,-1.15519 z"
       id="path8433"
       inkscape:connector-curvature="0"
       style="fill:#505050" />
    <path
       d="m 719.39497,69.000892 9.5859,3.465585 0.50454,1.155192 -2.01809,-0.385058 -8.07235,-3.465594 z"
       id="path8435"
       inkscape:connector-curvature="0"
       style="fill:#eff0f0" />
    <path
       d="m 713.84522,149.86451 2.01809,0.38508 2.01809,1.54026 -1.51358,0.77013 0.50453,1.15518 h -2.01809 l -1.00904,-2.31038 z"
       id="path8437"
       inkscape:connector-curvature="0"
       style="fill:#d2d4d4" />
    <path
       d="m 734.02611,116.74894 2.01807,1.54027 v 0.77012 h 1.51357 l 0.50453,-0.77012 3.02713,1.54025 -1.00905,0.38507 -4.03618,0.38506 -1.00904,-0.77013 z"
       id="path8439"
       inkscape:connector-curvature="0"
       style="fill:#5c5c5d" />
    <path
       d="m 689.12363,97.11063 2.52262,1.15521 v 0.77012 h -1.00904 l 0.50452,1.92532 -0.50452,1.1552 h -1.51358 z"
       id="path8441"
       inkscape:connector-curvature="0"
       style="fill:#a3a4a5" />
    <path
       d="m 931.29422,204.9288 3.53161,0.77014 2.52267,1.92532 -2.01809,-0.38508 -2.0181,-0.77012 -1.00908,1.54025 h -1.00901 z"
       id="path8443"
       inkscape:connector-curvature="0"
       style="fill:#737374" />
    <path
       d="m 820.29937,196.45737 2.5226,0.77013 1.0091,2.31038 -0.5046,0.77015 -2.01801,-0.77015 v -0.77012 h -1.00909 z"
       id="path8445"
       inkscape:connector-curvature="0"
       style="fill:#050406" />
    <path
       d="m 820.80389,179.51452 8.07236,3.08052 0.50451,0.77012 -5.0452,-1.15518 -4.03619,-1.54028 z"
       id="path8447"
       inkscape:connector-curvature="0"
       style="fill:#050406" />
    <path
       d="m 838.96672,188.75608 3.53161,0.38505 5.04527,2.31041 0.50451,0.77011 -2.0181,-0.38505 -7.06329,-2.69547 z"
       id="path8449"
       inkscape:connector-curvature="0"
       style="fill:#050406" />
    <path
       d="m 851.07521,156.02556 4.54069,1.15518 6.05428,1.92534 v 0.77012 l -2.01809,-0.38506 -6.05428,-1.92533 -2.5226,-1.15518 z"
       id="path8451"
       inkscape:connector-curvature="0"
       style="fill:#050406" />
    <path
       d="m 690.63721,139.46776 4.03618,2.31041 1.00904,0.38505 -0.50452,1.15519 -3.02713,-0.77012 -1.51357,-1.1552 z"
       id="path8453"
       inkscape:connector-curvature="0"
       style="fill:#5f5f60" />
    <path
       d="m 707.28643,96.72557 3.02713,0.77013 2.52262,0.77014 v 0.77012 l -3.02713,-0.38507 0.50451,0.77015 h -3.02713 l -0.50452,-1.54027 h 1.00906 z"
       id="path8455"
       inkscape:connector-curvature="0"
       style="fill:#b5b6b5" />
    <path
       d="m 705.77286,60.144405 3.53167,0.770125 3.53165,1.540268 -0.50452,0.770125 -2.0181,-0.385067 -3.02713,-0.770125 v -0.770134 h -1.00904 z"
       id="path8457"
       inkscape:connector-curvature="0"
       style="fill:#a9abab" />
    <path
       d="m 951.47506,212.24503 2.52264,0.77013 5.54982,3.08052 -2.0181,0.38507 -2.52273,-1.54026 -2.52254,-1.15519 z"
       id="path8459"
       inkscape:connector-curvature="0"
       style="fill:#050406" />
    <path
       d="m 109.42794,208.77945 h 0.50451 l 0.50453,3.08052 v 6.5461 h -0.50453 l -0.50451,-3.08052 h -0.50454 v -3.46558 z"
       id="path8461"
       inkscape:connector-curvature="0"
       style="fill:#dcdede" />
    <path
       d="m 835.43504,186.06062 4.0362,0.77013 1.51359,1.15519 h -2.52269 l 1.0091,0.77014 -1.0091,0.38505 -1.51351,-0.77012 -0.50459,-0.77012 -1.5135,-0.77014 z"
       id="path8463"
       inkscape:connector-curvature="0"
       style="fill:#d5d6c2" />
    <path
       d="m 700.72766,103.65673 3.53163,0.38508 2.52262,1.1552 -1.00905,0.38506 -3.53165,-1.1552 2.01808,1.92532 -2.5226,-0.77012 -2.01809,-1.54026 z"
       id="path8465"
       inkscape:connector-curvature="0"
       style="fill:#979897" />
    <path
       d="m 732.51253,98.65089 1.00903,0.38507 v 1.54026 h 3.02715 v 1.15519 h -1.51357 l -3.53166,-1.15519 -1.51356,-1.15518 h 2.01809 z"
       id="path8467"
       inkscape:connector-curvature="0"
       style="fill:#707172" />
    <path
       d="m 949.96152,236.50413 2.01808,0.38505 3.02709,1.1552 2.01819,1.92533 -2.01819,-0.38508 -4.03618,-1.92532 v -0.77013 z"
       id="path8469"
       inkscape:connector-curvature="0"
       style="fill:#050406" />
    <path
       d="m 960.05197,216.09568 h 1.00899 l 0.50465,1.54026 v 2.69545 l -1.51364,0.38507 -0.50445,-1.92533 z"
       id="path8471"
       inkscape:connector-curvature="0"
       style="fill:#050406" />
    <path
       d="m 703.25025,144.85868 2.52261,1.1552 -0.50451,1.54024 -1.00906,0.38508 -1.51355,-0.77013 -0.50453,-1.92533 z"
       id="path8473"
       inkscape:connector-curvature="0"
       style="fill:#ced0d0" />
    <path
       d="m 729.48541,114.0535 h 1.00903 l 1.00904,2.69544 0.50453,1.54027 -2.01809,-0.77015 -1.51356,-1.15518 1.00905,-0.38507 z"
       id="path8475"
       inkscape:connector-curvature="0"
       style="fill:#7d7e7f" />
    <path
       d="m 712.33166,107.89244 3.53165,0.77014 v 0.77014 l 2.5226,0.38506 -1.00904,1.15519 -2.01808,-0.38507 -2.01809,-1.54026 -1.00904,-0.38506 z"
       id="path8477"
       inkscape:connector-curvature="0"
       style="fill:#909188" />
    <path
       d="m 921.70825,230.72814 h 3.53169 l -0.50451,1.92533 -0.50449,1.54026 h -1.0091 v -2.69546 h -1.51359 z"
       id="path8479"
       inkscape:connector-curvature="0"
       style="fill:#818283" />
    <path
       d="m 719.89948,154.48531 2.52262,1.15518 v 0.77014 l -1.51357,1.15518 h -1.51356 l -0.50454,-2.69545 z"
       id="path8481"
       inkscape:connector-curvature="0"
       style="fill:#a4a5a6" />
    <path
       d="m 816.26319,141.00802 5.04527,1.92533 v 0.77012 l -3.02716,-1.15518 -0.50451,0.77012 -2.01811,-0.77012 z"
       id="path8483"
       inkscape:connector-curvature="0"
       style="fill:#d7d9d5" />
    <path
       d="m 918.68115,230.34308 h 1.0091 v 1.54025 h 1.00899 l -1.00899,1.92534 -1.51359,-0.38507 v -2.69546 z"
       id="path8485"
       inkscape:connector-curvature="0"
       style="fill:#717271" />
    <path
       d="m 807.6863,182.20998 2.01809,0.38506 0.50452,0.38506 v 2.31039 l -2.01809,-0.77013 v -1.1552 h -1.00904 z"
       id="path8487"
       inkscape:connector-curvature="0"
       style="fill:#050406" />
    <path
       d="m 701.73669,61.299597 2.5226,0.770134 4.54071,1.925326 -2.01809,0.385058 -5.04522,-2.310384 z"
       id="path8489"
       inkscape:connector-curvature="0"
       style="fill:#f0f1f1" />
    <path
       d="m 960.55642,242.66516 3.53173,0.38506 0.50455,1.1552 -1.0091,0.38506 -2.52264,-0.77014 -0.50454,1.15521 -0.50445,-1.54027 z"
       id="path8491"
       inkscape:connector-curvature="0"
       style="fill:#767673" />
    <path
       d="m 922.71735,199.15283 2.52259,0.77013 1.51359,1.15519 -1.00908,1.54026 -0.50451,-1.54026 -1.009,0.38506 h -1.51359 z"
       id="path8493"
       inkscape:connector-curvature="0"
       style="fill:#cdcecf" />
    <path
       d="m 934.32132,195.68725 2.52261,0.77012 v 0.77013 h 1.00907 l -0.5045,1.1552 -4.03619,-1.1552 v -0.77013 h 1.00901 z"
       id="path8495"
       inkscape:connector-curvature="0"
       style="fill:#747475" />
    <path
       d="m 850.0662,192.60672 2.5226,0.38507 0.5045,2.69546 h -2.52259 -1.51359 l 2.01809,-1.92533 -1.00901,-0.38508 z"
       id="path8497"
       inkscape:connector-curvature="0"
       style="fill:#60605d" />
    <path
       d="m 752.18889,83.633351 1.00904,0.385077 -0.50452,3.85063 -1.51357,0.385077 0.50453,-3.465577 z"
       id="path8499"
       inkscape:connector-curvature="0"
       style="fill:#050406" />
    <path
       d="m 946.42987,249.21126 h 1.0091 l 1.009,3.85064 -0.50455,1.54027 -1.51355,-0.38506 0.50456,-2.31041 z"
       id="path8501"
       inkscape:connector-curvature="0"
       style="fill:#59595a" />
    <path
       d="m 928.77163,234.96385 h 0.50449 v 2.69546 l -2.52259,-0.38506 0.50451,-1.92533 z"
       id="path8503"
       inkscape:connector-curvature="0"
       style="fill:#9e9fa0" />
    <path
       d="m 834.93054,151.01971 3.0271,0.38507 3.02719,1.54025 -1.0091,0.38507 -3.0271,-1.15519 -2.52259,0.77012 z"
       id="path8505"
       inkscape:connector-curvature="0"
       style="fill:#707172" />
    <path
       d="m 701.73669,63.224923 2.01809,0.770134 3.02713,0.385058 1.00906,1.155192 h -1.51358 l -1.00904,-0.770125 -0.50453,0.770125 -1.51357,-0.385058 v -0.770134 h -1.51356 z"
       id="path8507"
       inkscape:connector-curvature="0"
       style="fill:#dcdede" />
    <path
       d="m 946.42987,192.22165 2.0181,0.77014 1.51355,0.77013 v 0.77012 l 0.50454,0.77013 -3.02709,-0.77013 -1.0091,-0.77012 v -1.1552 z"
       id="path8509"
       inkscape:connector-curvature="0"
       style="fill:#8c8d8e" />
    <path
       d="m 802.13656,177.5892 1.00904,0.77012 0.50452,2.31038 h -1.00904 l -0.50452,0.77014 -0.50452,-0.38506 v -3.08052 z"
       id="path8511"
       inkscape:connector-curvature="0"
       style="fill:#747576" />
    <path
       d="m 741.59393,120.21453 5.04521,2.31039 -2.01808,0.38506 -2.5226,-0.77013 z"
       id="path8513"
       inkscape:connector-curvature="0"
       style="fill:#0c0c0e" />
    <path
       d="m 717.8814,93.259976 2.5226,0.38508 3.02713,-0.38508 -1.00903,1.92532 h -2.0181 l -1.00903,-0.38505 z"
       id="path8515"
       inkscape:connector-curvature="0"
       style="fill:#050406" />
    <path
       d="m 719.89948,135.23205 h 1.51357 l 1.51357,2.69546 -2.01809,-0.38505 -1.51356,-1.1552 z"
       id="path8517"
       inkscape:connector-curvature="0"
       style="fill:#050406" />
  </g>
</svg>
